<svg width="32" height="32" viewBox="0 0 32 32" fill="none" xmlns="http://www.w3.org/2000/svg">
<g clip-path="url(#clip0_809_5474)">
<path d="M18.7155 10.397L14.7968 24.972C14.7968 24.972 14.5562 26.4157 11.978 26.3126L12.3905 24.972L15 15.5" stroke="white" stroke-width="1.5" stroke-miterlimit="10" stroke-linecap="round" stroke-linejoin="round"/>
<path d="M21.6373 13.3188L7.02788 17.2032C7.02788 17.2032 5.54975 17.5126 5.68725 19.9876L7.02788 19.6438L14.3154 17.6845" stroke="white" stroke-width="1.5" stroke-miterlimit="10" stroke-linecap="round" stroke-linejoin="round"/>
<path d="M18.6364 10.3923C19.7103 9.31836 19.7103 7.57715 18.6364 6.50321C17.5624 5.42927 15.8212 5.42927 14.7473 6.50321C13.6733 7.57715 13.6733 9.31836 14.7473 10.3923C15.8212 11.4662 17.5624 11.4662 18.6364 10.3923Z" stroke="white" stroke-width="1.5" stroke-miterlimit="10" stroke-linecap="round" stroke-linejoin="round"/>
<path d="M25.506 17.2671C26.5799 16.1931 26.5799 14.4519 25.506 13.378C24.4321 12.304 22.6908 12.304 21.6169 13.378C20.543 14.4519 20.543 16.1931 21.6169 17.2671C22.6908 18.341 24.4321 18.341 25.506 17.2671Z" stroke="white" stroke-width="1.5" stroke-miterlimit="10" stroke-linecap="round" stroke-linejoin="round"/>
</g>
<defs>
<clipPath id="clip0_809_5474">
<rect width="22" height="22" fill="white" transform="translate(5 5)"/>
</clipPath>
</defs>
</svg>
