<svg width="32" height="32" viewBox="0 0 32 32" fill="none" xmlns="http://www.w3.org/2000/svg">
<path d="M8 9.53333H24M12.9231 9.53333V8.235C12.9231 7.90746 13.0495 7.59333 13.2745 7.36172C13.4996 7.13012 13.8048 7 14.1231 7H17.8769C18.0345 7 18.1906 7.03194 18.3361 7.09401C18.4817 7.15607 18.614 7.24704 18.7255 7.36172C18.8369 7.4764 18.9253 7.61255 18.9856 7.76239C19.0459 7.91222 19.0769 8.07282 19.0769 8.235V9.53333M22.3077 9.53333L21.4154 24.4483C21.4075 24.8573 21.2461 25.2473 20.9651 25.5366C20.684 25.8258 20.3051 25.9919 19.9077 26H12.0923C11.6949 25.9919 11.316 25.8258 11.0349 25.5366C10.7539 25.2473 10.5925 24.8573 10.5846 24.4483L9.69231 9.53333" stroke="white" stroke-width="1.5" stroke-miterlimit="10" stroke-linecap="round" stroke-linejoin="round"/>
<path d="M16 12V23M13 12L13.6 23M19 12L18.4 23" stroke="white" stroke-miterlimit="10" stroke-linecap="round" stroke-linejoin="round"/>
</svg>
