<svg width="32" height="32" viewBox="0 0 32 32" fill="none" xmlns="http://www.w3.org/2000/svg">
<path d="M27.7003 16.4062L25.1815 8.28125C25.0866 7.84527 24.8534 7.45161 24.5167 7.15882C24.18 6.86603 23.7577 6.68977 23.3128 6.65625H8.68779C7.87529 6.65625 7.18467 7.18437 6.81904 8.28125L4.30029 16.4062H27.7003Z" fill="white"/>
<path d="M3.8125 24.5312C3.8125 24.7467 3.8981 24.9534 4.05048 25.1058C4.20285 25.2581 4.40951 25.3438 4.625 25.3438H27.375C27.5905 25.3438 27.7972 25.2581 27.9495 25.1058C28.1019 24.9534 28.1875 24.7467 28.1875 24.5312V18.0312H3.8125V24.5312ZM23.5562 19.0875C23.7127 18.9476 23.9151 18.8703 24.125 18.8703C24.3349 18.8703 24.5373 18.9476 24.6938 19.0875C24.8468 19.2375 24.9344 19.4419 24.9375 19.6562C24.9375 19.8717 24.8519 20.0784 24.6995 20.2308C24.5472 20.3831 24.3405 20.4688 24.125 20.4688C23.9095 20.4688 23.7028 20.3831 23.5505 20.2308C23.3981 20.0784 23.3125 19.8717 23.3125 19.6562C23.3156 19.4419 23.4032 19.2375 23.5562 19.0875ZM7.875 21.2812H24.125C24.3405 21.2812 24.5472 21.3669 24.6995 21.5192C24.8519 21.6716 24.9375 21.8783 24.9375 22.0938C24.9375 22.3092 24.8519 22.5159 24.6995 22.6683C24.5472 22.8206 24.3405 22.9062 24.125 22.9062H7.875C7.65951 22.9062 7.45285 22.8206 7.30048 22.6683C7.1481 22.5159 7.0625 22.3092 7.0625 22.0938C7.0625 21.8783 7.1481 21.6716 7.30048 21.5192C7.45285 21.3669 7.65951 21.2812 7.875 21.2812Z" fill="white"/>
</svg>
