<svg width="32" height="32" viewBox="0 0 32 32" fill="none" xmlns="http://www.w3.org/2000/svg">
<path d="M21.625 4.75H10.375C10.0769 4.75089 9.79127 4.8697 9.58049 5.08049C9.3697 5.29127 9.25089 5.57691 9.25 5.875V26.125C9.25089 26.4231 9.3697 26.7087 9.58049 26.9195C9.79127 27.1303 10.0769 27.2491 10.375 27.25H21.625C21.9231 27.2491 22.2087 27.1303 22.4195 26.9195C22.6303 26.7087 22.7491 26.4231 22.75 26.125V5.875C22.7491 5.57691 22.6303 5.29127 22.4195 5.08049C22.2087 4.8697 21.9231 4.75089 21.625 4.75ZM16.5096 25.5303C16.3676 25.6704 16.1766 25.7498 15.9771 25.7515C15.7787 25.75 15.5888 25.6705 15.4484 25.5303C15.3783 25.4608 15.3226 25.3781 15.2847 25.2871C15.2467 25.196 15.2272 25.0983 15.2272 24.9996C15.2272 24.901 15.2467 24.8033 15.2847 24.7122C15.3226 24.6211 15.3783 24.5385 15.4484 24.469C15.5928 24.3354 15.7823 24.2611 15.979 24.2611C16.1757 24.2611 16.3652 24.3354 16.5096 24.469C16.6482 24.6111 16.7263 24.8015 16.7275 25C16.7273 25.1985 16.649 25.3889 16.5096 25.5303ZM21.25 22.75H10.75V7H21.25V22.75Z" fill="white"/>
<circle cx="23" cy="6" r="6" fill="#FC3D2F"/>
</svg>
