<svg width="32" height="32" viewBox="0 0 32 32" fill="none" xmlns="http://www.w3.org/2000/svg">
<path d="M24.7267 17.54C24.9215 16.4979 24.9215 15.4288 24.7267 14.3867L27 13.0667L24.0667 8.00667L21.7933 9.32667C20.9878 8.65582 20.0689 8.13429 19.08 7.78667V5H13.2133V7.71333C12.2244 8.06096 11.3055 8.58249 10.5 9.25333L8.15333 7.93333L5.22 13.0667L7.42 14.3133C7.21415 15.379 7.21415 16.4743 7.42 17.54L5 18.9333L7.93333 23.9933L10.3533 22.6733C11.1751 23.3779 12.1198 23.9249 13.14 24.2867V27H19.0067V24.2867C20.0576 23.9094 21.028 23.3372 21.8667 22.6L24.2867 24.0667L27.22 18.9333L24.7267 17.54ZM16.0733 19.6667C15.3481 19.6667 14.6392 19.4516 14.0362 19.0487C13.4333 18.6458 12.9633 18.0732 12.6858 17.4032C12.4083 16.7332 12.3356 15.9959 12.4771 15.2847C12.6186 14.5734 12.9678 13.9201 13.4806 13.4073C13.9934 12.8945 14.6467 12.5453 15.358 12.4038C16.0693 12.2623 16.8065 12.3349 17.4765 12.6124C18.1465 12.89 18.7192 13.3599 19.1221 13.9629C19.525 14.5659 19.74 15.2748 19.74 16C19.74 16.9725 19.3537 17.9051 18.6661 18.5927C17.9784 19.2804 17.0458 19.6667 16.0733 19.6667Z" fill="white"/>
</svg>
